<svg width="30" height="30" viewBox="0 0 30 30" fill="none" xmlns="http://www.w3.org/2000/svg">
<path fill-rule="evenodd" clip-rule="evenodd" d="M3.23205 2.13702C3.5313 1.95583 3.90348 1.94418 4.21346 2.10632L27.1735 14.1151C27.5033 14.2876 27.71 14.629 27.71 15.0012C27.71 15.3734 27.5033 15.7148 27.1735 15.8873L4.2135 27.8973C3.90351 28.0594 3.53133 28.0478 3.23207 27.8666C2.93282 27.6854 2.75 27.361 2.75 27.0112V17.4999C2.75 17.0411 3.0623 16.6411 3.50746 16.5298L9.81638 14.9526L3.48417 13.2065C3.05045 13.0869 2.75 12.6923 2.75 12.2424V2.99243C2.75 2.6426 2.93281 2.31821 3.23205 2.13702ZM4.75 4.64398V11.4809L14.0158 14.0359C14.4539 14.1567 14.7554 14.5576 14.7499 15.012C14.7445 15.4663 14.4334 15.8599 13.9925 15.9701L4.75 18.2807V25.3596L24.5524 15.0012L4.75 4.64398Z" fill="white"/>
</svg>
